Coordinates
nRows=10
nColumns=24

# SIMM Motion File Header:
name Coordinates
datacolumns 24
datarows 10
otherdata 1
range 0.82533000000000001000 0.83433000000000002000
endheader
time	pelvis_tx	pelvis_ty	pelvis_tz	pelvis_tilt	pelvis_list	pelvis_rotation	hip_flexion_r	hip_adduction_r	hip_rotation_r	knee_angle_r	ankle_angle_r	subtalar_angle_r	mtp_angle_r	hip_flexion_l	hip_adduction_l	hip_rotation_l	knee_angle_l	ankle_angle_l	subtalar_angle_l	mtp_angle_l	lumbar_extension	lumbar_bending	lumbar_rotation
      0.82533000000000001000	      1.40111367300028110000	      0.89153319165798384000	     -0.30860771833198847000	     -4.75324541850230540000	      0.46937205491373313000	      5.64777352182768140000	      8.43587093517712820000	      1.53359246686380120000	      5.70696113132776350000	    -10.91628144293041400000	      6.37897162562307060000	     -0.00000000000024206300	     -0.00000000000000187056	     18.12740126908639800000	      1.06677738103211390000	     20.01812792040556100000	    -45.11613827767291000000	     -4.47854599572415160000	      0.00000000000002203531	     -0.00000000000090049759	     -4.59329033944042300000	     -2.65895721205233350000	      3.77645619041361470000
      0.82633000000000001000	      1.40216509959902420000	      0.89155599822478193000	     -0.30864183577043613000	     -4.76489023734664750000	      0.49748128025076105000	      5.62592078804741910000	      8.33260861656067500000	      1.51609003166685090000	      5.68211607488796040000	    -10.85166421542416000000	      6.40632591716515610000	     -0.00000000000024310331	     -0.00000000000000204846	     18.21132196529814400000	      1.12094424831250070000	     20.04337622822926300000	    -44.91249285814800600000	     -4.35965031023679650000	      0.00000000000002238860	     -0.00000000000090247857	     -4.58886467809361150000	     -2.68428513888140690000	      3.80199654245425480000
      0.82733000000000001000	      1.40321530405843520000	      0.89157355194701937000	     -0.30867786429218008000	     -4.77653259456091120000	      0.52541109577559542000	      5.60409894025779830000	      8.22980231221575490000	      1.49866945387323640000	      5.65541469245302860000	    -10.78802325258782900000	      6.43570256428621690000	     -0.00000000000024414506	     -0.00000000000000221390	     18.29544385115448100000	      1.17435286651461010000	     20.06593743948610600000	    -44.70788536117533600000	     -4.24442767181921000000	      0.00000000000002272590	     -0.00000000000090441830	     -4.58448730345332220000	     -2.70902740684275440000	      3.82725780246545620000
      0.82833000000000001000	      1.40426507664952840000	      0.89158925011970269000	     -0.30871455850716334000	     -4.78818382151083540000	      0.55327677172781620000	      5.58229101687513560000	      8.12716799834478820000	      1.48127991749003970000	      5.62807416364730000000	    -10.72472460459471900000	      6.46575058844898360000	     -0.00000000000024518690	     -0.00000000000000237720	     18.37965588223119800000	      1.22749664465190130000	     20.08755634707441500000	    -44.50295610760456800000	     -4.13070260493420080000	      0.00000000000002305808	     -0.00000000000090633716	     -4.58011574327162660000	     -2.73356583122009680000	      3.85241734573683250000
      0.82933000000000001000	      1.40531454621798630000	      0.89160349489015889000	     -0.30875172157481423000	     -4.79983314663956940000	      0.58107410045734798000	      5.56047088568032780000	      8.02465878287575580000	      1.46394501707608590000	      5.60029580341409350000	    -10.66167271116594200000	      6.49599735109752530000	     -0.00000000000024622269	     -0.00000000000000254812	     18.46391087108770900000	      1.28040249019700080000	     20.10841144643894300000	    -44.29781495597207200000	     -4.01732647700640300000	      0.00000000000002338964	     -0.00000000000090823395	     -4.57575179353221450000	     -2.75792946179247430000	      3.87752017583965710000
      0.83033000000000001000	      1.40636263242223820000	      0.89161110456349058000	     -0.30879102505681738000	     -4.81147378954112970000	      0.60855940925721375000	      5.53859502316920690000	      7.92272066880684630000	      1.44685954173911150000	      5.57051864753370740000	    -10.59974730596563800000	      6.52715139813764540000	     -0.00000000000024723085	     -0.00000000000000275379	     18.54836197154763200000	      1.33222212173427050000	     20.12577959521664900000	    -44.09170644362295400000	     -3.90554333127457510000	      0.00000000000002371837	     -0.00000000000091002999	     -4.57142258711626950000	     -2.78149512064653370000	      3.90236409799909410000
      0.83133000000000001000	      1.40741071862649040000	      0.89161871423682237000	     -0.30883032853882053000	     -4.82311443244269090000	      0.63604471805707941000	      5.51671916065808610000	      7.82078255473793680000	      1.42977406640213680000	      5.54074149165332130000	    -10.53782190076533400000	      6.55830544517776650000	     -0.00000000000024823900	     -0.00000000000000295946	     18.63281307200755400000	      1.38404175327153990000	     20.14314774399435500000	    -43.88559793127384300000	     -3.79376018554274670000	      0.00000000000002404709	     -0.00000000000091182602	     -4.56709338070032440000	     -2.80506077950059260000	      3.92720802015853110000
      0.83233000000000001000	      1.40845788036887850000	      0.89162131141887913000	     -0.30887113350163153000	     -4.83465237420199050000	      0.66322948368226575000	      5.49474889171619110000	      7.71915112109056340000	      1.41298130302772700000	      5.50961049854968990000	    -10.47661240089066600000	      6.58862524784749310000	     -0.00000000000024924402	     -0.00000000000000314964	     18.71725691620180100000	      1.43492719067846370000	     20.15777785237346700000	    -43.67886784529422100000	     -3.68104202564220050000	      0.00000000000002436736	     -0.00000000000091362353	     -4.56287809809582430000	     -2.82795529079002250000	      3.95190089111004820000
      0.83333000000000002000	      1.40950460644533090000	      0.89162154639240410000	     -0.30891264605884627000	     -4.84614191657240760000	      0.69027261401823570000	      5.47273413238737930000	      7.61766421499816550000	      1.39632648437130700000	      5.47784149020292150000	    -10.41574028168669800000	      6.61855190087140240000	     -0.00000000000025024757	     -0.00000000000000333252	     18.80169734077658800000	      1.48537237567913350000	     20.17111761987508300000	    -43.47184483381057200000	     -3.56788322688053540000	      0.00000000000002468366	     -0.00000000000091542173	     -4.55871650372430270000	     -2.85053351414669630000	      3.97652257700955760000
      0.83433000000000002000	      1.41055074313946970000	      0.89161818915181190000	     -0.30895519367426932000	     -4.85749804119954650000	      0.71706941411211611000	      5.45064791292277740000	      7.51631035896229970000	      1.37993339555427830000	      5.44519126653661980000	    -10.35528553583802500000	      6.64709555843076410000	     -0.00000000000025126094	     -0.00000000000000347655	     18.88605046234036100000	      1.53509973916314270000	     20.18246227376640800000	    -43.26443922520275000000	     -3.45341485476357410000	      0.00000000000002501685	     -0.00000000000091724405	     -4.55469343793024970000	     -2.87260010352629400000	      4.00103160373934590000
